<?xml version="1.0" encoding="UTF-8" standalone="no"?>
<!-- Created with Inkscape (http://www.inkscape.org/) -->

<svg
   width="1920"
   height="1080"
   viewBox="0 0 507.99999 285.75"
   version="1.1"
   id="svg5"
   xml:space="preserve"
   inkscape:version="1.2 (dc2aedaf03, 2022-05-15)"
   sodipodi:docname="biclou-lyon-logo.svg"
   xmlns:inkscape="http://www.inkscape.org/namespaces/inkscape"
   xmlns:sodipodi="http://sodipodi.sourceforge.net/DTD/sodipodi-0.dtd"
   xmlns="http://www.w3.org/2000/svg"
   xmlns:svg="http://www.w3.org/2000/svg"><sodipodi:namedview
     id="namedview7"
     pagecolor="#ffffff"
     bordercolor="#666666"
     borderopacity="1.0"
     inkscape:showpageshadow="2"
     inkscape:pageopacity="0.0"
     inkscape:pagecheckerboard="0"
     inkscape:deskcolor="#d1d1d1"
     inkscape:document-units="px"
     showgrid="false"
     inkscape:zoom="0.41303992"
     inkscape:cx="934.53437"
     inkscape:cy="492.68845"
     inkscape:window-width="1920"
     inkscape:window-height="1003"
     inkscape:window-x="0"
     inkscape:window-y="0"
     inkscape:window-maximized="1"
     inkscape:current-layer="layer4" /><defs
     id="defs2" /><g
     inkscape:groupmode="layer"
     id="layer3"
     inkscape:label="background"
     style="display:inline"><rect
       style="display:inline;fill:#ffca02;fill-opacity:1;stroke:none;stroke-width:1.5;stroke-linecap:round;stroke-linejoin:round;paint-order:stroke markers fill"
       id="rect3038"
       width="508"
       height="285.75"
       x="0"
       y="0" /></g><g
     inkscape:groupmode="layer"
     id="layer5"
     inkscape:label="biclu"
     style="display:inline"><path
       d="m 44.837721,80.912806 q 0,-6.27937 -2.598361,-9.836649 -2.567427,-3.588212 -7.083625,-3.588212 -4.516197,0 -7.114558,3.588212 -2.567427,3.557279 -2.567427,9.836649 0,6.279349 2.567427,9.867538 2.598361,3.557259 7.114558,3.557259 4.516198,0 7.083625,-3.557259 2.598361,-3.588189 2.598361,-9.867538 z M 25.47375,68.818058 q 1.794106,-3.093286 4.516198,-4.578063 2.753024,-1.515711 6.557766,-1.515711 6.310304,0 10.238777,5.011124 3.959406,5.011123 3.959406,13.177398 0,8.166237 -3.959406,13.17733 -3.928473,5.0111 -10.238777,5.0111 -3.804742,0 -6.557766,-1.484771 -2.722092,-1.515701 -4.516198,-4.608973 v 5.19669 H 19.751171 V 50.072745 h 5.722579 z"
       id="path3955"
       style="font-size:63.3505px;line-height:110%;-inkscape-font-specification:'sans-serif, Normal';letter-spacing:0px;word-spacing:0px;baseline-shift:baseline;display:inline;fill:#ff5607;stroke-width:5.2792px" /><path
       d="m 57.005418,63.559472 h 5.691646 v 34.64471 h -5.691646 z m 0,-13.486727 h 5.691646 v 7.207356 h -5.691646 z"
       id="path3957"
       style="font-size:63.3505px;line-height:110%;-inkscape-font-specification:'sans-serif, Normal';letter-spacing:0px;word-spacing:0px;baseline-shift:baseline;display:inline;fill:#ff5607;stroke-width:5.2792px" /><path
       d="m 96.363081,64.889585 v 5.320452 q -2.412745,-1.330113 -4.856443,-1.979703 -2.412763,-0.680523 -4.887392,-0.680523 -5.536982,0 -8.599335,3.526346 -3.062353,3.495413 -3.062353,9.836649 0,6.341209 3.062353,9.867538 3.062353,3.495389 8.599335,3.495389 2.474629,0 4.887392,-0.649584 2.443698,-0.680517 4.856443,-2.010631 v 5.25856 q -2.381815,1.113574 -4.949242,1.670361 -2.536494,0.556797 -5.41325,0.556797 -7.826014,0 -12.43501,-4.918303 -4.608996,-4.91829 -4.608996,-13.270127 0,-8.475603 4.639929,-13.332062 4.670862,-4.85646 12.775271,-4.85646 2.629293,0 5.134855,0.556792 2.505558,0.525859 4.856443,1.608509 z"
       id="path3959"
       style="font-size:63.3505px;line-height:110%;-inkscape-font-specification:'sans-serif, Normal';letter-spacing:0px;word-spacing:0px;baseline-shift:baseline;display:inline;fill:#ff5607;stroke-width:5.2792px" /><path
       d="m 102.55739,50.072745 h 5.69165 v 48.131437 h -5.69165 z"
       id="path3961"
       style="font-size:63.3505px;line-height:110%;-inkscape-font-specification:'sans-serif, Normal';letter-spacing:0px;word-spacing:0px;baseline-shift:baseline;display:inline;fill:#ff5607;stroke-width:5.2792px" /><path
       d="M 150.39178,84.53194 V 63.559472 h 5.69165 V 84.31541 q 0,4.918293 1.91784,7.392908 1.91783,2.443688 5.75351,2.443688 4.60899,0 7.26922,-2.938605 2.69116,-2.938602 2.69116,-8.011565 V 63.559472 h 5.69165 v 34.64471 h -5.69165 v -5.32042 q -2.0725,3.155132 -4.82553,4.701773 -2.72209,1.515701 -6.34123,1.515701 -5.97005,0 -9.06333,-3.711929 -3.09329,-3.711919 -3.09329,-10.857367 z"
       id="path3965"
       style="font-size:63.3505px;line-height:110%;-inkscape-font-specification:'sans-serif, Normal';letter-spacing:0px;word-spacing:0px;baseline-shift:baseline;display:inline;fill:#ff5607;stroke-width:5.2792px" /></g><g
     inkscape:groupmode="layer"
     id="layer6"
     inkscape:label="wheel"
     style="display:inline"><path
       id="path4026"
       style="display:inline;fill:#ff5607;fill-opacity:1;stroke:none;stroke-width:1.5;stroke-linecap:round;stroke-linejoin:round;paint-order:stroke markers fill"
       d="m 129.48099,62.352255 a 18.88282,18.88282 0 0 0 -18.88257,18.882568 18.88282,18.88282 0 0 0 18.88257,18.882987 18.88282,18.88282 0 0 0 18.88308,-18.882987 18.88282,18.88282 0 0 0 -18.88308,-18.882568 z m 0,4.181657 A 14.70096,14.70096 0 0 1 144.1819,81.234823 14.70096,14.70096 0 0 1 129.48099,95.935654 14.70096,14.70096 0 0 1 114.78007,81.234823 14.70096,14.70096 0 0 1 129.48099,66.533912 Z" /><path
       id="path4071"
       style="display:inline;fill:#ff5607;fill-opacity:1;stroke:none;stroke-width:0.192841;stroke-linecap:round;stroke-linejoin:round;paint-order:stroke markers fill"
       d="m 129.48122,78.807487 c -1.3407,1.4e-5 -2.42755,1.086862 -2.42757,2.427563 -2e-5,1.340729 1.08684,2.427613 2.42757,2.427623 1.34075,1e-5 2.42764,-1.086874 2.42762,-2.427623 -2e-5,-1.340721 -1.0869,-2.427577 -2.42762,-2.427563 z"
       sodipodi:nodetypes="sssss" /><path
       style="display:inline;fill:none;fill-rule:evenodd;stroke:#ff5607;stroke-width:0.665;stroke-linecap:butt;stroke-linejoin:miter;stroke-dasharray:none;stroke-opacity:1"
       d="m 129.51714,81.125072 8.34557,-14.454944"
       id="path4115"
       inkscape:transform-center-x="-4.1620883"
       inkscape:transform-center-y="-7.1925852" /><path
       style="display:inline;fill:none;fill-rule:evenodd;stroke:#ff5607;stroke-width:0.665;stroke-linecap:butt;stroke-linejoin:miter;stroke-dasharray:none;stroke-opacity:1"
       d="m 129.50113,81.11505 14.45495,-8.345564"
       id="path4977"
       inkscape:transform-center-x="-7.2007683"
       inkscape:transform-center-y="-4.1479172" /><path
       style="display:inline;fill:none;fill-rule:evenodd;stroke:#ff5607;stroke-width:0.665;stroke-linecap:butt;stroke-linejoin:miter;stroke-dasharray:none;stroke-opacity:1"
       d="m 129.49228,81.098365 16.69113,5e-6"
       id="path4979"
       inkscape:transform-center-x="-8.3100083"
       inkscape:transform-center-y="0.0081823" /><path
       style="display:inline;fill:none;fill-rule:evenodd;stroke:#ff5607;stroke-width:0.665;stroke-linecap:butt;stroke-linejoin:miter;stroke-dasharray:none;stroke-opacity:1"
       d="m 129.49295,81.079491 14.45494,8.345569"
       id="path4981"
       inkscape:transform-center-x="-7.1925833"
       inkscape:transform-center-y="4.1620903" /><path
       style="display:inline;fill:none;fill-rule:evenodd;stroke:#ff5607;stroke-width:0.665;stroke-linecap:butt;stroke-linejoin:miter;stroke-dasharray:none;stroke-opacity:1"
       d="m 129.50297,81.06348 8.34556,14.454945"
       id="path4983"
       inkscape:transform-center-x="-4.1479133"
       inkscape:transform-center-y="7.2007673" /><path
       style="display:inline;fill:none;fill-rule:evenodd;stroke:#ff5607;stroke-width:0.665;stroke-linecap:butt;stroke-linejoin:miter;stroke-dasharray:none;stroke-opacity:1"
       d="m 129.51965,81.054624 v 16.69113"
       id="path4985"
       inkscape:transform-center-x="0.0081867"
       inkscape:transform-center-y="8.3100038" /><path
       style="display:inline;fill:none;fill-rule:evenodd;stroke:#ff5607;stroke-width:0.665;stroke-linecap:butt;stroke-linejoin:miter;stroke-dasharray:none;stroke-opacity:1"
       d="m 129.53853,81.055295 -8.34557,14.454943"
       id="path4987"
       inkscape:transform-center-x="4.1620917"
       inkscape:transform-center-y="7.1925813" /><path
       style="display:inline;fill:none;fill-rule:evenodd;stroke:#ff5607;stroke-width:0.665;stroke-linecap:butt;stroke-linejoin:miter;stroke-dasharray:none;stroke-opacity:1"
       d="M 129.55454,81.065316 115.0996,89.410879"
       id="path4989"
       inkscape:transform-center-x="7.2007667"
       inkscape:transform-center-y="4.1479123" /><path
       style="display:inline;fill:none;fill-rule:evenodd;stroke:#ff5607;stroke-width:0.665;stroke-linecap:butt;stroke-linejoin:miter;stroke-dasharray:none;stroke-opacity:1"
       d="M 129.5634,81.081999 H 112.87227"
       id="path4991"
       inkscape:transform-center-x="8.3100017"
       inkscape:transform-center-y="-0.0081862" /><path
       style="display:inline;fill:none;fill-rule:evenodd;stroke:#ff5607;stroke-width:0.665;stroke-linecap:butt;stroke-linejoin:miter;stroke-dasharray:none;stroke-opacity:1"
       d="M 129.56273,81.100877 115.10779,72.755312"
       id="path4993"
       inkscape:transform-center-x="7.1925767"
       inkscape:transform-center-y="-4.1620907" /><path
       style="display:inline;fill:none;fill-rule:evenodd;stroke:#ff5607;stroke-width:0.665;stroke-linecap:butt;stroke-linejoin:miter;stroke-dasharray:none;stroke-opacity:1"
       d="M 129.55271,81.116891 121.20715,66.66195"
       id="path4995"
       inkscape:transform-center-x="4.1479067"
       inkscape:transform-center-y="-7.2007647" /><path
       style="display:inline;fill:none;fill-rule:evenodd;stroke:#ff5607;stroke-width:0.665;stroke-linecap:butt;stroke-linejoin:miter;stroke-dasharray:none;stroke-opacity:1"
       d="m 129.53602,81.12575 1e-5,-16.691126"
       id="path4997"
       inkscape:transform-center-x="-0.0081883"
       inkscape:transform-center-y="-8.3099982" /></g><g
     inkscape:groupmode="layer"
     id="layer4"
     inkscape:label="lon"
     style="display:inline"><path
       d="m 157.6923,135.96438 h 15.18446 l -19.14887,99.11038 h 54.37981 l -2.46841,12.56645 H 136.075 Z"
       id="path3632"
       style="font-style:italic;font-size:153.191px;line-height:110%;-inkscape-font-specification:'sans-serif, Italic';letter-spacing:0px;word-spacing:0px;baseline-shift:baseline;display:inline;fill:#ff5607;stroke-width:12.7659px" /><path
       d="m 333.23042,146.21202 q -12.41685,0 -21.91649,6.05882 -9.49963,5.98402 -16.53086,18.32607 -4.48802,7.85403 -6.88163,16.68047 -2.31881,8.82643 -2.31881,17.80247 0,15.55846 7.40523,24.01089 7.48003,8.45243 21.09369,8.45243 12.26724,0 21.84168,-6.05882 9.64924,-6.13363 16.45606,-18.17647 4.56282,-8.07843 6.95643,-16.90487 2.39361,-8.90123 2.39361,-17.72767 0,-15.48366 -7.48003,-23.93609 -7.48003,-8.52723 -21.01888,-8.52723 z m -19.59768,103.5984 q -20.57008,0 -32.38852,-12.19245 -11.74365,-12.19244 -11.74365,-33.36093 0,-12.11764 4.56282,-24.75889 4.63762,-12.64125 12.71605,-22.51489 9.49964,-11.59405 21.16848,-17.27887 11.66885,-5.75962 25.7313,-5.75962 20.49528,0 32.31373,12.11765 11.81844,12.04284 11.81844,32.91213 0,12.86564 -4.48802,25.28249 -4.48801,12.41685 -12.86565,22.51489 -9.57443,11.66885 -21.16848,17.35367 -11.51924,5.68482 -25.6565,5.68482 z"
       id="path3636"
       style="font-style:italic;font-size:153.191px;line-height:110%;-inkscape-font-specification:'sans-serif, Italic';letter-spacing:0px;word-spacing:0px;baseline-shift:baseline;display:inline;fill:#ff5607;stroke-width:12.7659px" /><path
       d="m 407.70923,135.96438 h 20.34568 l 30.81772,95.74437 18.70007,-95.74437 h 14.73566 L 470.54148,247.64121 H 450.121 l -30.74292,-96.34277 -18.70007,96.34277 h -14.73566 z"
       id="path3638"
       style="font-style:italic;font-size:153.191px;line-height:110%;-inkscape-font-specification:'sans-serif, Italic';letter-spacing:0px;word-spacing:0px;baseline-shift:baseline;display:inline;fill:#ff5607;stroke-width:12.7659px" /></g><g
     inkscape:groupmode="layer"
     id="layer1"
     inkscape:label="y"
     style="display:inline"><path
       id="path256"
       style="display:inline;fill:#ff5607;fill-opacity:1;fill-rule:evenodd;stroke:none;stroke-width:0.264583px;stroke-linecap:butt;stroke-linejoin:miter;stroke-opacity:1"
       d="m 242.56928,42.103249 -5.87406,0.622185 c 0,0 -6.53064,5.839163 -9.18963,9.288838 -3.5823,4.647557 -6.05382,10.055261 -8.94984,15.158765 -2.60431,4.589453 -6.25962,8.79071 -7.57525,13.90096 -0.70072,2.721801 -0.74522,5.710276 -0.0424,8.431527 0.83301,3.225158 3.36632,5.753383 4.88343,8.718818 1.28548,2.512708 2.50774,5.063068 3.5698,7.678078 0.7527,1.85328 0.57719,4.23906 1.98076,5.66425 1.85214,1.88066 4.85555,2.16361 7.43417,2.72748 2.81023,0.61451 4.8651,-0.77135 7.30189,-1.12913 2.64598,-0.38849 5.30022,-1.49289 7.94629,-1.10484 2.0406,0.29926 4.23168,1.05637 5.626,2.57607 1.5507,1.69014 2.10718,4.19505 2.31666,6.47919 0.26937,2.9372 -0.65609,5.88435 -1.41387,8.73487 -0.69392,2.6103 -1.81017,4.76878 -3.07924,7.15303 -1.0581,1.98788 -2.73887,3.55809 -3.79647,5.54623 -1.33779,2.51486 -1.94354,5.6604 -3.32516,8.15145 -0.86598,1.56135 -1.59956,3.19304 -2.82676,4.48986 -1.61181,1.70324 -3.62782,2.97794 -5.33869,4.58164 -2.79304,2.61807 -5.99607,4.96879 -8.0269,8.21396 -2.62673,4.1974 -4.14226,9.10829 -5.01623,13.9821 -1.09014,6.07921 -1.00818,12.40542 -0.19276,18.52755 0.58777,4.41291 1.32076,9.04667 3.62976,12.85296 1.00073,1.64968 3.17273,2.7391 3.8807,4.53401 1.4571,3.6942 1.35468,9.54849 2.45221,11.54514 0,0 0.80808,9.61241 1.90586,14.39289 0.924,4.02374 1.84672,8.08426 3.40134,11.90884 1.73609,4.27101 6.55722,12.17806 6.55722,12.17806 l 8.48476,-0.0868 0.25838,-1.43506 c 0,0 -1.86269,-0.82545 -2.57607,-1.52238 -2.08218,-2.03422 -3.40854,-4.76412 -4.61677,-7.41247 -2.35747,-5.16738 -4.56961,-10.59927 -5.75731,-16.15344 -0.88113,-4.12049 -1.60661,-12.87163 -1.60661,-12.87163 -0.38273,-0.53568 -0.39887,-5.00203 -0.31313,-7.32827 0.19946,-5.41171 0.8382,-10.86231 2.25361,-16.08946 1.17969,-4.35668 3.00118,-8.55305 5.14439,-12.52533 2.65732,-4.92515 6.46824,-9.13969 9.47745,-13.85807 3.13226,-4.91129 5.9976,-9.98836 8.91884,-15.02802 1.9681,-3.39534 4.02418,-6.7457 5.79913,-10.24589 1.34805,-2.65834 2.70796,-5.33266 3.67523,-8.15195 1.50243,-4.37914 2.60126,-8.91784 3.26698,-13.49944 0.6509,-4.47964 0.75586,-9.0357 0.69453,-13.56196 -0.0573,-4.22762 -0.59697,-8.43568 -0.99167,-12.64523 -0.14208,-1.51527 -0.64142,-3.02433 -0.49558,-4.53925 0.18675,-1.939884 0.99698,-3.779092 1.73168,-5.584133 1.04086,-2.557243 2.66748,-4.843942 3.76876,-7.375765 1.29346,-2.973645 1.96537,-6.198006 3.31918,-9.144662 1.83966,-4.004127 3.51105,-8.270084 6.49056,-11.51661 2.28502,-2.489795 5.24549,-4.435471 8.37313,-5.715413 2.87251,-1.175535 6.06447,-1.492122 9.1643,-1.647961 2.60048,-0.130736 5.21311,0.218987 7.78816,0.604614 1.85448,0.277719 3.62187,1.387886 5.4901,1.226798 2.35376,-0.202951 6.54999,-2.706811 6.54999,-2.706811 l 0.16743,-6.123657 c 0,0 -3.98414,2.611577 -6.2358,3.279386 -3.35531,0.99514 -6.95571,1.046075 -10.45466,0.96945 -2.38453,-0.05222 -4.71975,-1.2469 -7.08897,-0.972034 -2.7039,0.313695 -5.25611,1.58518 -7.62124,2.932638 -3.48199,1.983756 -6.6755,4.545292 -9.4356,7.450708 -3.10602,3.269543 -5.7143,7.050301 -7.82898,11.033435 -1.81006,3.40937 -2.69576,7.233977 -4.06848,10.841715 -0.84607,2.223622 -2.0669,4.333948 -2.56884,6.659532 -0.83165,3.853166 -0.61103,7.86507 -0.67386,11.80649 -0.095,5.96208 1.03644,11.94873 0.44959,17.88263 -0.62048,6.27387 -2.05338,12.50985 -4.16978,18.44848 -1.79697,5.04235 -4.6689,9.63629 -7.1639,14.37225 -4.6026,8.73662 -9.44578,17.34674 -14.39292,25.893 -3.078,5.31727 -6.62301,10.36535 -9.51001,15.7887 -1.04869,1.96998 -2.28195,3.90466 -2.82877,6.06836 -1.17857,4.66344 -0.14607,9.36989 -0.84904,14.40532 -0.0478,0.34259 -0.66887,-1.19525 -0.86384,-1.48095 -0.77061,-1.12929 -0.3568,-1.22334 -0.71178,-2.54361 -0.3646,-1.35605 -0.82423,-2.77021 -1.49965,-4.0013 -1.33778,-2.43841 -2.78838,-4.86507 -3.61063,-7.52203 -1.76118,-5.69093 -3.14819,-11.72231 -2.7187,-17.66403 0.38148,-5.27749 2.03605,-10.57547 4.64571,-15.17841 2.01245,-3.54956 5.66266,-5.89344 8.20467,-9.08523 3.09685,-3.88846 6.66924,-6.60473 8.55038,-12.21786 0.74569,-2.22507 1.47782,-4.31888 2.53737,-6.41275 1.87127,-3.69799 5.08018,-6.48948 7.02846,-10.14748 1.84229,-3.45901 3.91189,-7.2784 3.61786,-11.1864 -0.25194,-3.34855 -1.99219,-6.77959 -4.49946,-9.0134 -2.40541,-2.14305 -5.86856,-3.1357 -9.08627,-3.29385 -4.18203,-0.20555 -7.14101,3.16672 -11.30072,2.68879 -2.49926,-0.28715 -6.75984,-0.67918 -7.57151,-3.06035 -1.65369,-4.85134 -2.37764,-8.94673 -4.73356,-12.860182 -0.86866,-1.442931 -2.36728,-2.410835 -3.37344,-3.761503 -0.55205,-0.741068 -1.26398,-1.458615 -1.44798,-2.364197 -0.69627,-3.426828 0.50282,-7.039453 1.55236,-10.375077 1.61432,-5.130531 4.55088,-9.757884 7.18044,-14.449764 1.88739,-3.367616 3.76697,-6.777893 6.15673,-9.809738 4.03814,-5.1231 13.68651,-13.98726 13.68651,-13.98726 z"
       sodipodi:nodetypes="ccssssssssssssssssssssssscsscccssscsssssssssssssssssssccsssssssscssssssscsssssssssssssssssssscc" /></g></svg>
