<?xml version="1.0" encoding="UTF-8" standalone="no"?>
<!-- Created with Inkscape (http://www.inkscape.org/) -->

<svg
   width="100"
   height="100"
   viewBox="0 0 26.458333 26.458333"
   version="1.1"
   id="svg5"
   inkscape:version="1.2.1 (9c6d41e410, 2022-07-14)"
   sodipodi:docname="dial.svg"
   xmlns:inkscape="http://www.inkscape.org/namespaces/inkscape"
   xmlns:sodipodi="http://sodipodi.sourceforge.net/DTD/sodipodi-0.dtd"
   xmlns="http://www.w3.org/2000/svg"
   xmlns:svg="http://www.w3.org/2000/svg">
  <sodipodi:namedview
     id="namedview7"
     pagecolor="#ffffff"
     bordercolor="#666666"
     borderopacity="1.0"
     inkscape:showpageshadow="2"
     inkscape:pageopacity="0.0"
     inkscape:pagecheckerboard="0"
     inkscape:deskcolor="#d1d1d1"
     inkscape:document-units="px"
     showgrid="false"
     inkscape:zoom="2.3786088"
     inkscape:cx="210.62732"
     inkscape:cy="32.371864"
     inkscape:window-width="1920"
     inkscape:window-height="1011"
     inkscape:window-x="0"
     inkscape:window-y="0"
     inkscape:window-maximized="1"
     inkscape:current-layer="layer1" />
  <defs
     id="defs2" />
  <g
     inkscape:label="Calque 1"
     inkscape:groupmode="layer"
     id="layer1">
    <circle
       style="fill:#000000;stroke-width:7.58888;stroke-linecap:round;stroke-linejoin:round;paint-order:stroke markers fill"
       id="path234"
       cx="13.229166"
       cy="13.229166"
       r="13.229166" />
    <path
       style="fill:none;fill-rule:evenodd;stroke:#ffffff;stroke-width:0.264583px;stroke-linecap:butt;stroke-linejoin:miter;stroke-opacity:1"
       d="M 14.787755,0.09191465 14.426682,3.1426051"
       id="path579"
       inkscape:transform-center-y="-11.643108"
       inkscape:transform-center-x="-1.3780525" />
    <path
       style="fill:none;fill-rule:evenodd;stroke:#ffffff;stroke-width:0.264583px;stroke-linecap:butt;stroke-linejoin:miter;stroke-opacity:1"
       d="M 16.324737,0.36638485 15.607597,3.3534897"
       id="path581"
       inkscape:transform-center-y="-11.400431"
       inkscape:transform-center-x="-2.737001" />
    <path
       style="fill:none;fill-rule:evenodd;stroke:#ffffff;stroke-width:0.264583px;stroke-linecap:butt;stroke-linejoin:miter;stroke-opacity:1"
       d="M 17.818805,0.81960541 16.75554,3.7017142"
       id="path583"
       inkscape:transform-center-y="-10.999708"
       inkscape:transform-center-x="-4.0580065" />
    <path
       style="fill:none;fill-rule:evenodd;stroke:#ffffff;stroke-width:0.264583px;stroke-linecap:butt;stroke-linejoin:miter;stroke-opacity:1"
       d="M 19.249247,1.4452933 17.854596,4.1824512"
       id="path585"
       inkscape:transform-center-y="-10.446496"
       inkscape:transform-center-x="-5.3227555" />
    <path
       style="fill:none;fill-rule:evenodd;stroke:#ffffff;stroke-width:0.264583px;stroke-linecap:butt;stroke-linejoin:miter;stroke-opacity:1"
       d="M 20.596232,2.2347747 18.889529,4.7890362"
       id="path587"
       inkscape:transform-center-y="-9.7484628"
       inkscape:transform-center-x="-6.5137145" />
    <path
       style="fill:none;fill-rule:evenodd;stroke:#ffffff;stroke-width:0.264583px;stroke-linecap:butt;stroke-linejoin:miter;stroke-opacity:1"
       d="M 21.841086,3.1771048 19.845992,5.5130599"
       id="path589"
       inkscape:transform-center-y="-8.9152859"
       inkscape:transform-center-x="-7.614373" />
    <path
       style="fill:none;fill-rule:evenodd;stroke:#ffffff;stroke-width:0.264583px;stroke-linecap:butt;stroke-linejoin:miter;stroke-opacity:1"
       d="M 22.966553,4.25922 20.710726,6.3444852"
       id="path591"
       inkscape:transform-center-y="-7.9585156"
       inkscape:transform-center-x="-8.6094735" />
    <path
       style="fill:none;fill-rule:evenodd;stroke:#ffffff;stroke-width:0.264583px;stroke-linecap:butt;stroke-linejoin:miter;stroke-opacity:1"
       d="M 23.957029,5.466119 21.471742,7.271786"
       id="path593"
       inkscape:transform-center-y="-6.8914157"
       inkscape:transform-center-x="-9.4852195" />
    <path
       style="fill:none;fill-rule:evenodd;stroke:#ffffff;stroke-width:0.264583px;stroke-linecap:butt;stroke-linejoin:miter;stroke-opacity:1"
       d="M 24.798784,6.7810703 22.118491,8.282107"
       id="path595"
       inkscape:transform-center-y="-5.7287795"
       inkscape:transform-center-x="-10.229471" />
    <path
       style="fill:none;fill-rule:evenodd;stroke:#ffffff;stroke-width:0.264583px;stroke-linecap:butt;stroke-linejoin:miter;stroke-opacity:1"
       d="M 25.991677,9.6609675 23.03503,10.494828"
       id="path597"
       inkscape:transform-center-y="-3.1824704"
       inkscape:transform-center-x="-11.284187" />
    <path
       style="fill:none;fill-rule:evenodd;stroke:#ffffff;stroke-width:0.264583px;stroke-linecap:butt;stroke-linejoin:miter;stroke-opacity:1"
       d="m 26.326277,11.185989 -3.034162,0.480564"
       id="path599"
       inkscape:transform-center-y="-1.8340971"
       inkscape:transform-center-x="-11.58003" />
    <path
       style="fill:none;fill-rule:evenodd;stroke:#ffffff;stroke-width:0.264583px;stroke-linecap:butt;stroke-linejoin:miter;stroke-opacity:1"
       d="m 26.479311,12.739768 -3.069615,0.120605"
       id="path601"
       inkscape:transform-center-y="-0.4602976"
       inkscape:transform-center-x="-11.715338" />
    <path
       style="fill:none;fill-rule:evenodd;stroke:#ffffff;stroke-width:0.264583px;stroke-linecap:butt;stroke-linejoin:miter;stroke-opacity:1"
       d="M 26.448657,14.300764 23.386144,14.059739"
       id="path603"
       inkscape:transform-center-y="0.9198834"
       inkscape:transform-center-x="-11.688235" />
    <path
       style="fill:none;fill-rule:evenodd;stroke:#ffffff;stroke-width:0.264583px;stroke-linecap:butt;stroke-linejoin:miter;stroke-opacity:1"
       d="M 26.23474,15.847337 23.221784,15.248023"
       id="path605"
       inkscape:transform-center-y="2.2873119"
       inkscape:transform-center-x="-11.499096" />
    <path
       style="fill:none;fill-rule:evenodd;stroke:#ffffff;stroke-width:0.264583px;stroke-linecap:butt;stroke-linejoin:miter;stroke-opacity:1"
       d="m 25.840526,17.358047 -2.92163,-0.949295"
       id="path607"
       inkscape:transform-center-y="3.6230314"
       inkscape:transform-center-x="-11.150545" />
    <path
       style="fill:none;fill-rule:evenodd;stroke:#ffffff;stroke-width:0.264583px;stroke-linecap:butt;stroke-linejoin:miter;stroke-opacity:1"
       d="M 25.271479,18.81195 22.481678,17.525834"
       id="path609"
       inkscape:transform-center-y="4.9085239"
       inkscape:transform-center-x="-10.647412" />
    <path
       style="fill:none;fill-rule:evenodd;stroke:#ffffff;stroke-width:0.264583px;stroke-linecap:butt;stroke-linejoin:miter;stroke-opacity:1"
       d="M 24.535489,20.188891 21.916192,18.583784"
       id="path611"
       inkscape:transform-center-y="6.1259694"
       inkscape:transform-center-x="-9.996674" />
    <path
       style="fill:none;fill-rule:evenodd;stroke:#ffffff;stroke-width:0.264583px;stroke-linecap:butt;stroke-linejoin:miter;stroke-opacity:1"
       d="M 23.642758,21.469781 21.230277,19.567935"
       id="path613"
       inkscape:transform-center-y="7.2584899"
       inkscape:transform-center-x="-9.207351" />
    <path
       style="fill:none;fill-rule:evenodd;stroke:#ffffff;stroke-width:0.264583px;stroke-linecap:butt;stroke-linejoin:miter;stroke-opacity:1"
       d="M 2.8155746,21.469781 5.2280555,19.567934"
       id="path641"
       inkscape:transform-center-y="7.2584896"
       inkscape:transform-center-x="9.207351" />
    <path
       style="fill:none;fill-rule:evenodd;stroke:#ffffff;stroke-width:0.264583px;stroke-linecap:butt;stroke-linejoin:miter;stroke-opacity:1"
       d="M 1.9228438,20.188891 4.5421406,18.583783"
       id="path643"
       inkscape:transform-center-y="6.1259691"
       inkscape:transform-center-x="9.9966738" />
    <path
       style="fill:none;fill-rule:evenodd;stroke:#ffffff;stroke-width:0.264583px;stroke-linecap:butt;stroke-linejoin:miter;stroke-opacity:1"
       d="M 1.1868535,18.81195 3.9766547,17.525833"
       id="path645"
       inkscape:transform-center-y="4.9085236"
       inkscape:transform-center-x="10.647412" />
    <path
       style="fill:none;fill-rule:evenodd;stroke:#ffffff;stroke-width:0.264583px;stroke-linecap:butt;stroke-linejoin:miter;stroke-opacity:1"
       d="M 0.6178068,17.358047 3.5394372,16.408751"
       id="path647"
       inkscape:transform-center-y="3.6230311"
       inkscape:transform-center-x="11.150544" />
    <path
       style="fill:none;fill-rule:evenodd;stroke:#ffffff;stroke-width:0.264583px;stroke-linecap:butt;stroke-linejoin:miter;stroke-opacity:1"
       d="M 0.22359244,15.847337 3.2365492,15.248022"
       id="path649"
       inkscape:transform-center-y="2.2873116"
       inkscape:transform-center-x="11.499095" />
    <path
       style="fill:none;fill-rule:evenodd;stroke:#ffffff;stroke-width:0.264583px;stroke-linecap:butt;stroke-linejoin:miter;stroke-opacity:1"
       d="M 0.00967552,14.300764 3.0721898,14.059738"
       id="path651"
       inkscape:transform-center-y="0.9198831"
       inkscape:transform-center-x="11.688233" />
    <path
       style="fill:none;fill-rule:evenodd;stroke:#ffffff;stroke-width:0.264583px;stroke-linecap:butt;stroke-linejoin:miter;stroke-opacity:1"
       d="M -0.02097846,12.739768 3.0486374,12.860373"
       id="path653"
       inkscape:transform-center-y="-0.4602974"
       inkscape:transform-center-x="11.715336" />
    <path
       style="fill:none;fill-rule:evenodd;stroke:#ffffff;stroke-width:0.264583px;stroke-linecap:butt;stroke-linejoin:miter;stroke-opacity:1"
       d="M 0.13205544,11.185989 3.1662185,11.666553"
       id="path655"
       inkscape:transform-center-y="-1.8340969"
       inkscape:transform-center-x="11.580029" />
    <path
       style="fill:none;fill-rule:evenodd;stroke:#ffffff;stroke-width:0.264583px;stroke-linecap:butt;stroke-linejoin:miter;stroke-opacity:1"
       d="M 0.46665572,9.6609674 3.4233031,10.494828"
       id="path657"
       inkscape:transform-center-y="-3.1824702"
       inkscape:transform-center-x="11.284187" />
    <path
       style="fill:none;fill-rule:evenodd;stroke:#ffffff;stroke-width:0.264583px;stroke-linecap:butt;stroke-linejoin:miter;stroke-opacity:1"
       d="M 2.5013034,5.4661189 4.9865909,7.2717857"
       id="path659"
       inkscape:transform-center-y="-6.8914157"
       inkscape:transform-center-x="9.4852192" />
    <path
       style="fill:none;fill-rule:evenodd;stroke:#ffffff;stroke-width:0.264583px;stroke-linecap:butt;stroke-linejoin:miter;stroke-opacity:1"
       d="m 1.6595483,6.7810702 2.680294,1.5010365"
       id="path661"
       inkscape:transform-center-y="-5.7287795"
       inkscape:transform-center-x="10.229471" />
    <path
       style="fill:none;fill-rule:evenodd;stroke:#ffffff;stroke-width:0.264583px;stroke-linecap:butt;stroke-linejoin:miter;stroke-opacity:1"
       d="M 3.4917798,4.25922 5.747607,6.3444849"
       id="path663"
       inkscape:transform-center-y="-7.9585155"
       inkscape:transform-center-x="8.6094729" />
    <path
       style="fill:none;fill-rule:evenodd;stroke:#ffffff;stroke-width:0.264583px;stroke-linecap:butt;stroke-linejoin:miter;stroke-opacity:1"
       d="M 4.6172464,3.1771048 6.6123406,5.5130596"
       id="path665"
       inkscape:transform-center-y="-8.9152858"
       inkscape:transform-center-x="7.6143728" />
    <path
       style="fill:none;fill-rule:evenodd;stroke:#ffffff;stroke-width:0.264583px;stroke-linecap:butt;stroke-linejoin:miter;stroke-opacity:1"
       d="M 5.8621008,2.2347747 7.5688039,4.7890359"
       id="path667"
       inkscape:transform-center-y="-9.7484627"
       inkscape:transform-center-x="6.513714" />
    <path
       style="fill:none;fill-rule:evenodd;stroke:#ffffff;stroke-width:0.264583px;stroke-linecap:butt;stroke-linejoin:miter;stroke-opacity:1"
       d="M 7.2090855,1.4452934 8.6037373,4.182451"
       id="path669"
       inkscape:transform-center-y="-10.446496"
       inkscape:transform-center-x="5.3227549" />
    <path
       style="fill:none;fill-rule:evenodd;stroke:#ffffff;stroke-width:0.264583px;stroke-linecap:butt;stroke-linejoin:miter;stroke-opacity:1"
       d="M 8.6395271,0.81960547 9.7027934,3.7017141"
       id="path671"
       inkscape:transform-center-y="-10.999708"
       inkscape:transform-center-x="4.0580061" />
    <path
       style="fill:none;fill-rule:evenodd;stroke:#ffffff;stroke-width:0.264583px;stroke-linecap:butt;stroke-linejoin:miter;stroke-opacity:1"
       d="m 10.133595,0.3663849 0.717141,2.9871047"
       id="path673"
       inkscape:transform-center-y="-11.400431"
       inkscape:transform-center-x="2.7370009" />
    <path
       style="fill:none;fill-rule:evenodd;stroke:#ffffff;stroke-width:0.264583px;stroke-linecap:butt;stroke-linejoin:miter;stroke-opacity:1"
       d="M 11.670577,0.09191469 12.031651,3.142605"
       id="path675"
       inkscape:transform-center-y="-11.643108"
       inkscape:transform-center-x="1.3780524" />
    <circle
       style="fill:#000000;stroke-width:6.82999;stroke-linecap:round;stroke-linejoin:round;paint-order:stroke markers fill"
       id="circle683"
       cx="13.229167"
       cy="13.229167"
       r="11.90625" />
    <g
       aria-label="km/h"
       id="text813"
       style="font-size:3.175px;line-height:110%;-inkscape-font-specification:'sans-serif, Normal';letter-spacing:0px;word-spacing:0px;baseline-shift:baseline;opacity:1;vector-effect:none;fill:#ffffff;stroke-width:0.264583px">
      <path
         d="m 9.5014873,22.771491 h 0.2868042 v 1.424719 l 0.8511105,-0.748792 h 0.364319 l -0.920874,0.812354 0.959632,0.923974 h -0.372071 l -0.8821165,-0.84801 v 0.84801 H 9.5014873 Z"
         id="path891"
         style="fill:#ffffff" />
      <path
         d="m 12.702842,23.780731 q 0.106971,-0.192236 0.255799,-0.283703 0.148828,-0.09147 0.350366,-0.09147 0.271301,0 0.418579,0.190686 0.147278,0.189136 0.147278,0.539502 v 1.047998 H 13.58806 V 24.14505 q 0,-0.249597 -0.08837,-0.37052 -0.08837,-0.120923 -0.269751,-0.120923 -0.221692,0 -0.350366,0.147278 -0.128675,0.147278 -0.128675,0.401526 v 0.981335 H 12.464097 V 24.14505 q 0,-0.251147 -0.08837,-0.37052 -0.08837,-0.120923 -0.272852,-0.120923 -0.218591,0 -0.347266,0.148828 -0.128674,0.147278 -0.128674,0.399976 v 0.981335 h -0.286804 v -1.736328 h 0.286804 v 0.269751 q 0.09767,-0.15968 0.234094,-0.235644 0.136426,-0.07597 0.324011,-0.07597 0.189136,0 0.320911,0.09612 0.133325,0.09612 0.196887,0.279053 z"
         id="path893"
         style="fill:#ffffff" />
      <path
         d="m 14.950767,22.869159 h 0.26355 l -0.806153,2.609143 h -0.263549 z"
         id="path895"
         style="fill:#ffffff" />
      <path
         d="m 16.956846,24.135748 v 1.047998 H 16.671592 V 24.14505 q 0,-0.246497 -0.09612,-0.36897 -0.09612,-0.122473 -0.288354,-0.122473 -0.230994,0 -0.364319,0.147278 -0.133325,0.147278 -0.133325,0.401526 v 0.981335 h -0.286805 v -2.412255 h 0.286805 v 0.945678 q 0.102319,-0.156579 0.240295,-0.234094 0.139526,-0.07751 0.320911,-0.07751 0.299206,0 0.452685,0.186035 0.153479,0.184485 0.153479,0.544153 z"
         id="path897"
         style="fill:#ffffff" />
    </g>
    <g
       aria-label="0"
       id="text739"
       style="font-size:3.175px;line-height:110%;-inkscape-font-specification:'sans-serif, Normal';letter-spacing:0px;word-spacing:0px;baseline-shift:baseline;opacity:1;vector-effect:none;fill:#ffffff;stroke-width:0.264583px">
      <path
         d="m 7.3409167,18.352228 q -0.2418457,0 -0.3643188,0.238745 -0.1209229,0.237195 -0.1209229,0.714685 0,0.47594 0.1209229,0.714685 0.1224731,0.237195 0.3643188,0.237195 0.243396,0 0.3643189,-0.237195 0.1224731,-0.238745 0.1224731,-0.714685 0,-0.47749 -0.1224731,-0.714685 -0.1209229,-0.238745 -0.3643189,-0.238745 z m 0,-0.248047 q 0.3891235,0 0.5937622,0.308509 0.206189,0.306958 0.206189,0.892968 0,0.584461 -0.206189,0.892969 -0.2046387,0.306958 -0.5937622,0.306958 -0.3891235,0 -0.5953125,-0.306958 -0.2046386,-0.308508 -0.2046386,-0.892969 0,-0.58601 0.2046386,-0.892968 0.206189,-0.308509 0.5953125,-0.308509 z"
         id="path900" />
    </g>
    <g
       aria-label="10"
       id="text747"
       style="font-size:3.175px;line-height:110%;-inkscape-font-specification:'sans-serif, Normal';letter-spacing:0px;word-spacing:0px;baseline-shift:baseline;opacity:1;vector-effect:none;fill:#ffffff;stroke-width:0.264583px">
      <path
         d="M 4.6545772,10.758657 H 5.1661738 V 8.9928728 L 4.6096187,9.1044939 V 8.81924 L 5.1630732,8.7076189 h 0.3131592 v 2.0510381 h 0.5115967 v 0.263549 H 4.6545772 Z"
         id="path903" />
      <path
         d="m 7.2900751,8.9138079 q -0.2418457,0 -0.3643188,0.2387451 -0.1209228,0.2371948 -0.1209228,0.7146851 0,0.4759399 0.1209228,0.7146849 0.1224731,0.237195 0.3643188,0.237195 0.243396,0 0.3643189,-0.237195 0.1224731,-0.238745 0.1224731,-0.7146849 0,-0.4774903 -0.1224731,-0.7146851 Q 7.5334711,8.9138079 7.2900751,8.9138079 Z m 0,-0.2480469 q 0.3891236,0 0.5937622,0.3085083 0.206189,0.306958 0.206189,0.8929688 0,0.5844609 -0.206189,0.8929689 -0.2046386,0.306958 -0.5937622,0.306958 -0.3891235,0 -0.5953124,-0.306958 Q 6.490124,10.451699 6.490124,9.8672381 q 0,-0.5860108 0.2046387,-0.8929688 Q 6.9009516,8.665761 7.2900751,8.665761 Z"
         id="path905" />
    </g>
    <g
       aria-label="20"
       id="text751"
       style="font-size:3.175px;line-height:110%;-inkscape-font-specification:'sans-serif, Normal';letter-spacing:0px;word-spacing:0px;baseline-shift:baseline;opacity:1;vector-effect:none;fill:#ffffff;stroke-width:0.264583px">
      <path
         d="m 11.79876,5.7370276 h 1.092957 V 6.0005774 H 11.422039 V 5.7370276 q 0.178284,-0.1844848 0.485242,-0.4945434 0.308508,-0.3116089 0.387573,-0.4015259 0.150378,-0.1689819 0.20929,-0.2852539 0.06046,-0.1178222 0.06046,-0.2309936 0,-0.1844849 -0.130225,-0.3007569 -0.128674,-0.1162719 -0.336413,-0.1162719 -0.147278,0 -0.311609,0.05116 -0.162781,0.05116 -0.348816,0.1550293 V 3.7976112 q 0.189136,-0.075964 0.353467,-0.1147217 0.164331,-0.038757 0.300757,-0.038757 0.359668,0 0.573608,0.179834 0.21394,0.1798339 0.21394,0.4805908 0,0.1426269 -0.05426,0.2713012 -0.05271,0.1271241 -0.193786,0.3007569 -0.03876,0.044958 -0.246497,0.2604492 -0.207739,0.2139404 -0.586011,0.5999633 z"
         id="path908" />
      <path
         d="m 14.218767,3.892179 q -0.241845,0 -0.364318,0.2387452 -0.120923,0.2371948 -0.120923,0.714685 0,0.4759399 0.120923,0.7146851 0.122473,0.2371948 0.364318,0.2371948 0.243396,0 0.364319,-0.2371948 0.122473,-0.2387452 0.122473,-0.7146851 0,-0.4774902 -0.122473,-0.714685 Q 14.462163,3.892179 14.218767,3.892179 Z m 0,-0.2480468 q 0.389124,0 0.593763,0.3085083 0.206189,0.306958 0.206189,0.8929687 0,0.5844604 -0.206189,0.8929687 -0.204639,0.306958 -0.593763,0.306958 -0.389123,0 -0.595312,-0.306958 -0.204639,-0.3085083 -0.204639,-0.8929687 0,-0.5860107 0.204639,-0.8929687 0.206189,-0.3085083 0.595312,-0.3085083 z"
         id="path910" />
    </g>
    <g
       aria-label="30"
       id="text755"
       style="font-size:3.175px;line-height:110%;-inkscape-font-specification:'sans-serif, Normal';letter-spacing:0px;word-spacing:0px;baseline-shift:baseline;opacity:1;vector-effect:none;fill:#ffffff;stroke-width:0.264583px">
      <path
         d="m 19.682394,9.7798691 q 0.224792,0.048059 0.350366,0.1999878 0.127124,0.1519291 0.127124,0.3751711 0,0.342615 -0.235645,0.5302 -0.235644,0.187585 -0.669726,0.187585 -0.145728,0 -0.300757,-0.02946 -0.153479,-0.0279 -0.31781,-0.08527 v -0.302307 q 0.130224,0.07596 0.285254,0.114721 0.155029,0.03876 0.324011,0.03876 0.294556,0 0.448035,-0.116272 0.155029,-0.116272 0.155029,-0.337964 0,-0.204639 -0.144177,-0.319361 Q 19.561471,9.9193955 19.305672,9.9193955 H 19.035921 V 9.6620468 h 0.282154 q 0.230993,0 0.353467,-0.091467 0.122473,-0.093018 0.122473,-0.2666504 0,-0.1782837 -0.127124,-0.2728516 -0.125574,-0.096118 -0.361219,-0.096118 -0.128674,0 -0.275952,0.027905 -0.147278,0.027905 -0.324011,0.086816 V 8.7706284 q 0.178284,-0.049609 0.333313,-0.074414 0.15658,-0.024805 0.294556,-0.024805 0.356567,0 0.564306,0.1627808 0.20774,0.1612305 0.20774,0.4371826 0,0.1922363 -0.110071,0.3255615 -0.110071,0.1317749 -0.313159,0.1829346 z"
         id="path913" />
      <path
         d="m 21.423373,8.9194565 q -0.241846,0 -0.364319,0.2387451 -0.120923,0.2371948 -0.120923,0.7146851 0,0.4759403 0.120923,0.7146853 0.122473,0.237195 0.364319,0.237195 0.243396,0 0.364318,-0.237195 0.122474,-0.238745 0.122474,-0.7146853 0,-0.4774903 -0.122474,-0.7146851 -0.120922,-0.2387451 -0.364318,-0.2387451 z m 0,-0.2480469 q 0.389123,0 0.593762,0.3085083 0.206189,0.306958 0.206189,0.8929688 0,0.5844603 -0.206189,0.8929683 -0.204639,0.306958 -0.593762,0.306958 -0.389124,0 -0.595313,-0.306958 -0.204639,-0.308508 -0.204639,-0.8929683 0,-0.5860108 0.204639,-0.8929688 0.206189,-0.3085083 0.595313,-0.3085083 z"
         id="path915" />
    </g>
    <g
       aria-label="40"
       id="text759"
       style="font-size:3.175px;line-height:110%;-inkscape-font-specification:'sans-serif, Normal';letter-spacing:0px;word-spacing:0px;baseline-shift:baseline;opacity:1;vector-effect:none;fill:#ffffff;stroke-width:0.264583px">
      <path
         d="m 17.600932,18.098222 -0.79065,1.235583 h 0.79065 z m -0.08217,-0.272852 h 0.393774 v 1.508435 h 0.330213 v 0.260449 H 17.91254 v 0.545703 h -0.311608 v -0.545703 h -1.044898 v -0.302307 z"
         id="path918" />
      <path
         d="m 19.430277,18.031559 q -0.241846,0 -0.364319,0.238745 -0.120923,0.237195 -0.120923,0.714685 0,0.47594 0.120923,0.714685 0.122473,0.237195 0.364319,0.237195 0.243396,0 0.364319,-0.237195 0.122473,-0.238745 0.122473,-0.714685 0,-0.47749 -0.122473,-0.714685 -0.120923,-0.238745 -0.364319,-0.238745 z m 0,-0.248047 q 0.389124,0 0.593762,0.308508 0.206189,0.306958 0.206189,0.892969 0,0.584461 -0.206189,0.892969 -0.204638,0.306958 -0.593762,0.306958 -0.389123,0 -0.595312,-0.306958 -0.204639,-0.308508 -0.204639,-0.892969 0,-0.586011 0.204639,-0.892969 0.206189,-0.308508 0.595312,-0.308508 z"
         id="path920" />
    </g>
  </g>
  <g
     inkscape:groupmode="layer"
     id="layer2"
     inkscape:label="tens"
     style="display:inline">
    <path
       style="fill:none;fill-rule:evenodd;stroke:#ffffff;stroke-width:0.264583px;stroke-linecap:butt;stroke-linejoin:miter;stroke-opacity:1"
       d="M 3.85267,22.636864 6.0248905,20.464643"
       id="path344"
       inkscape:transform-center-y="8.2903856"
       inkscape:transform-center-x="8.2903858" />
    <path
       style="fill:none;fill-rule:evenodd;stroke:#ffffff;stroke-width:0.264583px;stroke-linecap:butt;stroke-linejoin:miter;stroke-opacity:1"
       d="M 0.97818352,8.1858448 3.8163268,9.3614419"
       id="path496"
       inkscape:transform-center-y="-4.4867245"
       inkscape:transform-center-x="10.831911" />
    <path
       style="fill:none;fill-rule:evenodd;stroke:#ffffff;stroke-width:0.264583px;stroke-linecap:butt;stroke-linejoin:miter;stroke-opacity:1"
       d="M 13.229166,-1.6263685e-7 V 3.0719839"
       id="path498"
       inkscape:transform-center-y="-11.724376" />
    <path
       style="fill:none;fill-rule:evenodd;stroke:#ffffff;stroke-width:0.264583px;stroke-linecap:butt;stroke-linejoin:miter;stroke-opacity:1"
       d="M 25.480149,8.1858447 22.642005,9.3614421"
       id="path500"
       inkscape:transform-center-y="-4.4867245"
       inkscape:transform-center-x="-10.831911" />
    <path
       style="fill:none;fill-rule:evenodd;stroke:#ffffff;stroke-width:0.264583px;stroke-linecap:butt;stroke-linejoin:miter;stroke-opacity:1"
       d="M 22.605662,22.636864 20.433441,20.464643"
       id="path502"
       inkscape:transform-center-y="8.2903856"
       inkscape:transform-center-x="-8.2903855" />
  </g>
</svg>
